PathFileType	4	(X/Y/Z)	C:\Users\WrightLab\Desktop\Jo\P1.2Trial8.trc
DataRate	CameraRate	NumFrames	NumMarkers	Units	OrigDataRate	OrigDataStartFrame	OrigNumFrames
100.00	100.00	       8	19	mm	100.00	474	       946
Frame#	Time	Headset_Front			Headset_Back			Headset_Left			Headset_Right			Left_Shoulder			Right_Shoulder			Sternum			C7			Left Elbow			Right Elbow			Left Wrist			Right Wrist			Left ASIS			Right ASIS			S2			Left Knee			Right Knee			Left Ankle			Right Ankle			
		X1	Y1	Z1	X2	Y2	Z2	X3	Y3	Z3	X4	Y4	Z4	X5	Y5	Z5	X6	Y6	Z6	X7	Y7	Z7	X8	Y8	Z8	X9	Y9	Z9	X10	Y10	Z10	X11	Y11	Z11	X12	Y12	Z12	X13	Y13	Z13	X14	Y14	Z14	X15	Y15	Z15	X16	Y16	Z16	X17	Y17	Z17	X18	Y18	Z18	X19	Y19	Z19	

474	4.730	-396.37646	1322.18970	53.27076	-543.54285	1508.48877	250.52238	-579.92035	1407.98157	112.64393	-357.99875	1395.18054	180.91240	-666.28339	1225.45178	114.69212	-344.37650	1247.57166	375.82675	-447.20087	1158.43970	163.71385	-585.27771	1297.95166	340.21719	-609.84113	972.37402	-2.62135	-329.51624	1008.89545	493.42535	-628.48828	904.97565	421.44592	-269.17212	748.26135	487.09064	-576.18481	855.74396	100.32096	-346.93900	840.47009	254.73645	-405.09415	929.98523	-142.23160	-679.52271	421.23117	147.32480	-294.62714	441.56628	207.62932	-818.11377	127.58515	337.18570	-224.61752	130.69212	191.66130	
475	4.740	-389.01624	1322.39856	48.51175	-534.84521	1508.67603	245.82875	-571.85065	1408.10303	108.82927	-352.20471	1393.91943	175.79308	-660.02667	1226.47510	111.30661	-334.81232	1245.78149	368.28860	-439.49762	1158.37659	159.38724	-577.00134	1299.15625	335.10211	-603.96906	971.87518	-5.05438	-318.74097	1009.04810	487.01230	-618.30133	905.61530	418.05035	-257.93396	747.78741	479.99252	-569.21613	855.17719	96.50891	-338.68811	840.80334	248.32333	-400.60028	928.70477	-145.96552	-672.70953	421.12585	142.13242	-286.60843	440.67581	202.96687	-815.88861	130.11674	331.54022	-221.04424	127.61835	188.65085	
476	4.750	-382.07968	1321.73108	44.30906	-526.25659	1509.08813	241.65565	-564.62531	1408.90686	104.64016	-341.94415	1395.32581	169.22649	-651.91852	1226.18408	108.62845	-325.36212	1246.38574	362.15878	-432.20126	1158.96033	154.35126	-568.05377	1299.93762	331.30884	-598.07874	971.78351	-7.59444	-306.80579	1009.22748	479.61176	-607.40601	905.40039	415.07465	-247.17513	747.59625	472.79309	-562.17731	855.66718	93.26719	-328.37231	844.06885	241.33200	-395.53412	926.80267	-147.89992	-665.63226	420.45602	137.32109	-278.80521	440.14935	199.16135	-813.55011	132.18645	329.73462	-217.37743	125.14084	185.86417	
477	4.760	-374.58759	1322.05835	38.73977	-517.85596	1509.56873	237.36317	-556.18445	1409.18994	102.15076	-336.02188	1395.06799	165.07561	-644.92908	1226.92883	105.31066	-315.68719	1246.43164	355.71451	-424.46228	1159.39124	149.06091	-558.17029	1299.65479	329.07892	-591.98920	972.51288	-10.98036	-296.79904	1008.93719	473.31430	-597.11273	906.42902	410.82138	-235.96655	746.73486	462.61081	-554.11664	856.13379	88.91950	-320.76080	843.50342	236.42928	-390.64960	925.61646	-152.19113	-658.92206	421.85129	131.13718	-271.33994	440.44186	194.00511	-811.06647	134.17796	327.98740	-214.24648	123.34274	183.31828	
478	4.770	-367.52051	1321.86597	33.44050	-509.30261	1509.92737	233.16476	-548.75946	1409.14404	96.99206	-327.57767	1394.78552	159.16675	-638.18158	1227.58203	102.32590	-307.50555	1246.00586	349.33118	-416.70193	1159.97559	143.82953	-549.22821	1300.53845	325.28207	-586.14441	972.51819	-13.50913	-285.82709	1008.71869	465.47818	-587.02557	906.86176	406.55533	-225.24721	747.13672	453.72516	-547.44916	856.77948	85.15211	-313.40353	843.45148	231.10236	-386.35712	924.84515	-155.71675	-651.04443	420.95346	126.91981	-264.19763	441.94791	189.58571	-808.47205	137.19237	324.77188	-211.44547	120.82262	180.71924	
479	4.780	-360.75189	1322.60120	28.67730	-500.60776	1510.85950	228.66425	-541.61072	1410.37317	92.96021	-318.21729	1396.05786	154.69286	-631.02441	1228.68274	98.78134	-297.96057	1247.65601	342.39954	-410.03320	1160.52429	139.24925	-540.68304	1301.62427	321.36185	-580.22333	972.96722	-16.49537	-275.05127	1009.22565	459.02078	-576.88940	907.32025	402.54984	-213.63615	747.80872	445.65372	-540.59198	857.27045	81.08929	-305.78589	844.44604	224.25957	-382.14117	923.57324	-160.24442	-643.37158	420.63373	121.44804	-256.81204	443.26456	184.35371	-806.09222	140.61525	322.42880	-209.93059	116.98566	177.65486	
480	4.790	-353.76685	1322.20654	24.03558	-492.34781	1511.83276	224.38617	-533.57141	1410.91602	90.20559	-311.60501	1395.40759	148.03349	-624.26111	1229.87585	95.41478	-290.19635	1247.73682	336.71426	-403.25659	1161.34912	134.69653	-532.08868	1302.54346	317.61996	-574.14539	973.44904	-18.63066	-263.97812	1009.67755	451.12491	-567.59906	908.51068	398.92807	-201.72804	749.12567	436.74478	-532.90173	858.27423	76.94036	-299.13458	845.06128	218.58946	-377.71344	922.57257	-164.40997	-635.44598	421.05142	115.61779	-250.40189	444.27979	179.83035	-803.01459	143.23558	319.52429	-207.30696	117.73400	176.24667	
481	4.800	-347.09824	1322.45715	18.65194	-483.94220	1512.71936	219.92999	-526.20306	1411.69189	87.12437	-302.98755	1396.33398	144.29996	-617.07959	1231.06555	91.58603	-280.73694	1249.25464	329.92822	-396.05734	1162.05005	129.73228	-524.87695	1304.24255	312.22308	-568.49933	973.55719	-21.32069	-252.94283	1010.27185	442.81781	-558.82294	910.05261	394.78217	-189.70766	749.95892	427.46777	-526.25061	858.72235	73.31428	-290.98419	845.08160	215.83246	-372.68762	921.36987	-168.02539	-627.09467	421.62207	109.85639	-244.44769	445.60284	175.53242	-799.47388	146.74272	315.82584	-208.04018	115.61383	172.31512	
